<svg width="3181" height="614" viewBox="0 0 3181 614" fill="none" xmlns="http://www.w3.org/2000/svg">
<path d="M763.634 291.172H869.906V286.129C834.258 284.784 832.24 280.413 845.692 260.912L929.768 142.56H1065.64V135.836H934.477L1022.59 12.1042H1111.37C1164.17 12.1042 1167.2 22.8634 1144.67 83.3843H1151.06L1188.05 5.37964H953.31V10.423C988.958 11.7679 990.976 16.1389 977.523 35.64L821.478 255.196C804.327 279.068 799.619 284.784 763.634 286.129V291.172Z" fill="black"/>
<path d="M1313.15 295.207C1400.25 295.207 1467.85 233.005 1467.85 147.604C1467.85 62.202 1400.25 0 1313.15 0C1226.05 0 1158.45 62.202 1158.45 147.604C1158.45 233.005 1226.05 295.207 1313.15 295.207ZM1313.15 288.483C1232.77 288.483 1186.7 226.281 1186.7 147.604C1186.7 68.9265 1232.77 6.72455 1313.15 6.72455C1393.53 6.72455 1439.6 68.9265 1439.6 147.604C1439.6 226.281 1393.53 288.483 1313.15 288.483Z" fill="black"/>
<path d="M1487.61 147.604C1487.61 232.669 1547.47 295.207 1634.24 295.207C1696.46 295.207 1735.8 265.283 1755.31 213.84L1748.58 211.823C1730.09 258.558 1696.46 285.12 1639.62 285.12C1559.24 285.12 1515.86 219.892 1515.86 147.604C1515.86 68.5903 1555.55 6.72455 1631.89 6.72455C1695.11 6.72455 1741.86 47.408 1750.6 94.1435H1756.32L1753.96 10.7593H1747.91C1746.57 23.1997 1742.19 28.5793 1735.8 28.5793C1730.09 28.5793 1725.72 26.2257 1719.33 22.8634C1702.51 14.1215 1673.59 0 1632.56 0C1549.83 0 1487.61 61.5295 1487.61 147.604Z" fill="black"/>
<path d="M1766.36 11.0955C1799.65 13.1129 1803.69 13.4491 1803.69 41.3559V55.4774L1804.02 176.519C1804.36 256.541 1851.44 295.207 1917.02 295.207C1988.99 295.207 2027.67 257.214 2027.67 175.174V41.3559C2027.67 13.4491 2031.7 13.1129 2065 11.0955V5.37964H1982.6V11.0955C2015.9 13.1129 2019.93 13.4491 2019.93 41.3559V175.174C2019.93 254.188 1984.62 280.749 1921.39 280.749C1863.21 280.749 1828.24 247.463 1828.24 168.45V41.3559C1828.24 13.4491 1832.27 13.1129 1865.57 11.0955V5.37964H1766.36V11.0955Z" fill="black"/>
<path d="M2047.91 198.038H2040.17C2043.2 258.895 2076.49 294.871 2136.02 294.871C2204.62 294.871 2266.5 246.454 2266.5 175.174C2266.5 141.552 2254.73 109.946 2254.73 80.3582C2254.73 24.2083 2286.34 12.1042 2341.5 12.1042H2447.1V5.37964H2341.5C2276.93 5.37964 2230.18 25.5532 2230.18 96.1609C2230.18 126.421 2240.27 155.673 2240.27 185.597C2240.27 244.437 2193.86 288.146 2136.02 288.146C2080.19 288.146 2050.93 253.515 2047.91 198.038Z" fill="black"/>
<path d="M0 609.965H88.1116V604.922C49.1004 603.577 47.7551 602.232 82.3944 553.815L228.35 348.717L176.896 609.965H185.64L525.307 331.906L353.455 573.989C336.304 597.861 331.596 603.577 295.611 604.922V609.965H401.883V604.922C366.235 603.577 364.217 598.87 377.669 579.705L533.714 360.149C550.866 336.277 555.574 330.561 591.558 329.216V324.172H522.952L206.491 583.067L257.272 324.172H190.012V329.216C224.315 330.561 230.032 332.242 206.491 365.192L63.2251 566.592C38.3386 601.896 32.6215 603.577 0 604.922V609.965Z" fill="black"/>
<path d="M694.205 614C781.307 614 848.904 551.798 848.904 466.396C848.904 380.995 781.307 318.793 694.205 318.793C607.102 318.793 539.505 380.995 539.505 466.396C539.505 551.798 607.102 614 694.205 614ZM694.205 607.275C613.828 607.275 567.754 545.073 567.754 466.396C567.754 387.719 613.828 325.517 694.205 325.517C774.581 325.517 820.655 387.719 820.655 466.396C820.655 545.073 774.581 607.275 694.205 607.275Z" fill="black"/>
<path d="M639.831 609.965H727.943V604.922C688.931 603.577 687.586 602.232 722.225 553.815L862.8 356.114L894.413 613.664H903.493L1078.37 367.546C1103.26 332.578 1108.97 330.561 1141.6 329.216V324.172H1053.48V329.216C1092.5 330.561 1093.84 331.906 1059.2 380.322L916.273 581.05L884.66 324.172H829.843V329.216C864.146 330.561 869.19 332.914 846.322 365.192L703.056 566.592C678.17 601.56 672.453 603.577 639.831 604.922V609.965Z" fill="black"/>
<path d="M1233.77 614C1320.87 614 1388.47 551.798 1388.47 466.396C1388.47 380.995 1320.87 318.793 1233.77 318.793C1146.67 318.793 1079.07 380.995 1079.07 466.396C1079.07 551.798 1146.67 614 1233.77 614ZM1233.77 607.275C1153.39 607.275 1107.32 545.073 1107.32 466.396C1107.32 387.719 1153.39 325.517 1233.77 325.517C1314.15 325.517 1360.22 387.719 1360.22 466.396C1360.22 545.073 1314.15 607.275 1233.77 607.275Z" fill="black"/>
<path d="M1203.53 609.965H1291.65V604.922C1252.63 603.577 1251.29 602.232 1285.93 553.815L1426.5 356.114L1458.12 613.664H1467.2L1642.07 367.546C1666.96 332.578 1672.68 330.561 1705.3 329.216V324.172H1617.19V329.216C1656.2 330.561 1657.54 331.906 1622.9 380.322L1479.98 581.05L1448.36 324.172H1393.55V329.216C1427.85 330.561 1432.89 332.914 1410.02 365.192L1266.76 566.592C1241.87 601.56 1236.16 603.577 1203.53 604.922V609.965Z" fill="black"/>
<path d="M1781.25 614C1868.36 614 1935.95 551.798 1935.95 466.396C1935.95 380.995 1868.36 318.793 1781.25 318.793C1694.15 318.793 1626.55 380.995 1626.55 466.396C1626.55 551.798 1694.15 614 1781.25 614ZM1781.25 607.275C1700.88 607.275 1654.8 545.073 1654.8 466.396C1654.8 387.719 1700.88 325.517 1781.25 325.517C1861.63 325.517 1907.7 387.719 1907.7 466.396C1907.7 545.073 1861.63 607.275 1781.25 607.275Z" fill="black"/>
<path d="M2159.83 381.331C2177.65 333.587 2180.68 331.233 2209.6 329.888V324.172H2132.58V329.888C2166.22 331.569 2168.23 333.923 2149.06 385.366L2072.39 592.818C2070.37 598.197 2068.35 601.223 2064.32 601.223C2060.28 601.223 2058.6 598.534 2056.24 592.482L1968.13 357.459C1958.72 332.578 1967.8 330.897 1996.72 329.888V324.172H1902.89V329.888C1930.8 331.233 1932.82 333.587 1942.57 359.14L2031.69 593.826C2036.74 607.276 2045.15 614 2057.25 614C2069.36 614 2076.09 606.939 2080.79 594.499L2159.83 381.331Z" fill="black"/>
<path d="M2331.12 614C2418.22 614 2485.82 551.798 2485.82 466.396C2485.82 380.995 2418.22 318.793 2331.12 318.793C2244.01 318.793 2176.42 380.995 2176.42 466.396C2176.42 551.798 2244.01 614 2331.12 614ZM2331.12 607.275C2250.74 607.275 2204.67 545.073 2204.67 466.396C2204.67 387.719 2250.74 325.517 2331.12 325.517C2411.49 325.517 2457.57 387.719 2457.57 466.396C2457.57 545.073 2411.49 607.275 2331.12 607.275Z" fill="black"/>
<path d="M2477.4 329.888C2510.69 331.906 2514.73 332.242 2514.73 360.149V374.27L2515.06 495.312C2515.4 575.334 2562.48 614 2628.06 614C2700.03 614 2738.7 576.006 2738.7 493.967V360.149C2738.7 332.242 2742.74 331.906 2776.03 329.888V324.172H2693.64V329.888C2726.93 331.906 2730.97 332.242 2730.97 360.149V493.967C2730.97 572.98 2695.66 599.542 2632.43 599.542C2574.25 599.542 2539.28 566.256 2539.28 487.243V360.149C2539.28 332.242 2543.31 331.906 2576.61 329.888V324.172H2477.4V329.888Z" fill="black"/>
<path d="M2781.81 516.83H2774.07C2777.1 577.688 2810.39 613.664 2869.92 613.664C2938.52 613.664 3000.4 565.247 3000.4 493.967C3000.4 460.344 2988.63 428.739 2988.63 399.151C2988.63 343.001 3020.25 330.897 3075.4 330.897H3181V324.172H3075.4C3010.83 324.172 2964.08 344.346 2964.08 414.954C2964.08 445.214 2974.17 474.466 2974.17 504.39C2974.17 563.23 2927.76 606.939 2869.92 606.939C2814.09 606.939 2784.83 572.308 2781.81 516.83Z" fill="black"/>
</svg>
