<svg width="2131" height="716" viewBox="0 0 2131 716" fill="none" xmlns="http://www.w3.org/2000/svg">
<path d="M376.889 286.484H463.548V281.521C425.18 280.198 423.857 278.875 457.925 231.238L601.473 29.4423L550.867 286.484H559.467L893.531 12.9017L724.514 251.087C707.646 274.574 703.015 280.198 667.624 281.521V286.484H772.143V281.521C737.083 280.198 735.098 275.567 748.329 256.71L901.799 40.6899C918.668 17.2023 923.299 11.5784 958.69 10.2552V5.29301H891.215L579.974 260.019L629.918 5.29301H563.767V10.2552C597.504 11.5784 603.127 13.2325 579.974 45.6521L439.072 243.809C414.596 278.544 408.973 280.198 376.889 281.521V286.484Z" fill="#252424"/>
<path d="M1066.08 290.453C1151.75 290.453 1218.23 229.253 1218.23 145.227C1218.23 61.2003 1151.75 0 1066.08 0C980.418 0 913.936 61.2003 913.936 145.227C913.936 229.253 980.418 290.453 1066.08 290.453ZM1066.08 283.837C987.033 283.837 941.719 222.637 941.719 145.227C941.719 67.8166 987.033 6.61626 1066.08 6.61626C1145.13 6.61626 1190.45 67.8166 1190.45 145.227C1190.45 222.637 1145.13 283.837 1066.08 283.837Z" fill="#252424"/>
<path d="M1220.22 286.484H1301.25V280.86C1268.51 278.875 1264.54 278.544 1264.54 251.087V32.4196L1469.61 286.484H1477.21V40.6899C1477.21 13.2325 1481.18 12.9017 1513.93 10.9168V5.29301H1432.89V10.9168C1465.64 12.9017 1469.61 13.2325 1469.61 40.6899V246.124L1275.12 5.29301H1220.22V10.9168C1252.96 12.9017 1256.93 13.2325 1256.93 40.6899V251.087C1256.93 278.544 1252.96 278.875 1220.22 280.86V286.484Z" fill="#252424"/>
<path d="M1671.66 290.453C1757.32 290.453 1823.81 229.253 1823.81 145.227C1823.81 61.2003 1757.32 0 1671.66 0C1585.99 0 1519.51 61.2003 1519.51 145.227C1519.51 229.253 1585.99 290.453 1671.66 290.453ZM1671.66 283.837C1592.61 283.837 1547.29 222.637 1547.29 145.227C1547.29 67.8166 1592.61 6.61626 1671.66 6.61626C1750.71 6.61626 1796.02 67.8166 1796.02 145.227C1796.02 222.637 1750.71 283.837 1671.66 283.837Z" fill="#252424"/>
<path d="M537.798 598.144L538.471 599.885C538.471 659.1 504.403 706.737 450.159 706.737C394.923 706.737 372.762 659.1 356.224 605.839L326.456 511.227C319.18 488.07 310.58 469.214 300.988 454.658C344.648 447.049 391.615 424.885 391.615 383.203C391.615 365.339 380.7 348.798 362.178 336.227C375.739 328.288 390.954 322.995 409.145 319.356L407.161 314.063C387.315 318.363 371.108 324.318 356.886 332.919C336.379 320.679 308.595 313.401 277.174 313.401C141.564 313.401 0 424.885 0 528.429C0 575.405 27.7835 603.524 73.4279 603.524C114.442 603.524 162.732 585.329 224.914 499.979L256.005 457.305C259.313 457.636 262.951 457.636 266.589 457.636C274.197 457.636 282.466 456.974 290.735 455.981C297.019 466.898 302.311 480.131 306.611 496.341L337.371 618.41C353.248 681.265 386.985 716 443.544 716C507.049 716 546.409 667.04 546.409 599.885L545.737 598.144H537.798ZM218.299 497.333C154.794 584.006 108.819 596.908 74.7509 596.908C32.7449 596.908 9.59193 572.427 9.59193 530.745C9.59193 434.809 141.564 333.912 271.22 333.912C300.327 333.912 323.149 337.881 340.017 344.167C322.157 358.061 306.28 376.917 288.089 402.059L271.551 424.554C258.651 416.615 244.429 412.645 228.553 412.645C212.676 412.645 203.415 420.254 203.415 427.862C203.415 442.087 221.607 453.004 248.067 456.312L218.299 497.333ZM379.047 388.165C379.047 424.885 335.387 442.749 296.688 448.704C290.404 440.433 284.12 433.817 276.843 428.524L293.05 406.36C312.565 379.233 328.772 360.377 346.302 346.813C368.462 356.738 379.047 371.955 379.047 388.165ZM267.582 430.178L253.028 450.027C228.883 447.049 216.645 438.118 216.645 430.178C216.645 424.223 222.599 420.254 233.845 420.254C246.083 420.254 257.328 423.562 267.582 430.178ZM268.574 450.688C265.928 450.688 263.282 450.688 260.967 450.358L272.874 434.148C277.835 438.448 282.466 443.411 286.766 449.696C280.481 450.358 274.197 450.688 268.574 450.688Z" fill="#252424"/>
<path d="M558.573 603.855C644.239 603.855 710.721 542.654 710.721 458.628C710.721 374.602 644.239 313.401 558.573 313.401C472.907 313.401 406.425 374.602 406.425 458.628C406.425 542.654 472.907 603.855 558.573 603.855ZM558.573 597.238C479.522 597.238 434.209 536.038 434.209 458.628C434.209 381.218 479.522 320.018 558.573 320.018C637.624 320.018 682.937 381.218 682.937 458.628C682.937 536.038 637.624 597.238 558.573 597.238Z" fill="#252424"/>
<path d="M707.974 324.318C740.719 326.303 744.688 326.634 744.688 354.091V367.985L745.019 487.078C745.349 565.811 791.655 603.855 856.153 603.855C926.935 603.855 964.971 566.473 964.971 485.755V354.091C964.971 326.634 968.941 326.303 1001.69 324.318V318.694H920.65V324.318C953.395 326.303 957.364 326.634 957.364 354.091V485.755C957.364 563.495 922.635 589.63 860.453 589.63C803.232 589.63 768.833 556.879 768.833 479.138V354.091C768.833 326.634 772.802 326.303 805.547 324.318V318.694H707.974V324.318Z" fill="#252424"/>
<path d="M1002.53 395.443H1008.49C1019.73 343.505 1030.98 325.31 1075.3 325.31H1121.61V564.488C1121.61 591.945 1117.64 592.276 1084.89 594.261V599.885H1182.46V594.261C1149.72 592.276 1145.75 591.945 1145.75 564.488V325.31H1192.06C1236.38 325.31 1247.62 343.505 1258.87 395.443H1264.82L1254.57 318.694H1012.79L1002.53 395.443Z" fill="#252424"/>
<path d="M1266.37 599.885H1363.94V594.261C1331.2 592.276 1327.23 591.945 1327.23 564.488V354.091C1327.23 326.634 1331.2 326.303 1363.94 324.318V318.694H1266.37V324.318C1299.12 326.303 1303.08 326.634 1303.08 354.091V564.488C1303.08 591.945 1299.12 592.276 1266.37 594.261V599.885Z" fill="#252424"/>
<path d="M1361.97 599.885H1443V594.261C1410.26 592.276 1406.29 591.945 1406.29 564.488V345.821L1611.36 599.885H1618.97V354.091C1618.97 326.634 1622.93 326.303 1655.68 324.318V318.694H1574.64V324.318C1607.39 326.303 1611.36 326.634 1611.36 354.091V559.526L1416.87 318.694H1361.97V324.318C1394.71 326.303 1398.68 326.634 1398.68 354.091V564.488C1398.68 591.945 1394.71 592.276 1361.97 594.261V599.885Z" fill="#252424"/>
<path d="M1651.41 324.318C1684.15 326.303 1688.12 326.634 1688.12 354.091V367.985L1688.45 487.078C1688.78 565.811 1735.09 603.855 1799.59 603.855C1870.37 603.855 1908.41 566.473 1908.41 485.755V354.091C1908.41 326.634 1912.38 326.303 1945.12 324.318V318.694H1864.08V324.318C1896.83 326.303 1900.8 326.634 1900.8 354.091V485.755C1900.8 563.495 1866.07 589.63 1803.89 589.63C1746.67 589.63 1712.27 556.879 1712.27 479.138V354.091C1712.27 326.634 1716.24 326.303 1748.98 324.318V318.694H1651.41V324.318Z" fill="#252424"/>
<path d="M1953.71 509.242H1947.76L1949.75 596.908H1955.7C1956.03 584.667 1959.34 582.021 1963.31 582.021C1976.54 582.021 1992.74 603.855 2038.39 603.855C2086.02 603.855 2131 575.074 2131 528.76C2131 484.431 2095.61 462.928 2058.23 445.395L2030.45 432.494C1994.73 415.953 1974.88 397.428 1974.88 368.647C1974.88 340.197 1998.7 320.018 2034.75 320.018C2073.78 320.018 2109.17 346.483 2116.45 392.796L2122.07 392.465L2120.42 320.018H2115.12C2113.47 332.919 2110.49 334.242 2105.86 334.242C2102.89 334.242 2097.92 332.258 2090.65 328.619C2078.08 322.333 2060.88 313.401 2035.41 313.401C1990.43 313.401 1955.37 340.528 1955.37 378.902C1955.37 414.63 1978.85 434.809 2019.2 454.658L2045.33 467.56C2078.08 483.77 2109.5 502.295 2109.5 539.677C2109.5 576.397 2075.76 597.238 2037.73 597.238C1989.77 597.238 1956.03 559.195 1953.71 509.242Z" fill="#252424"/>
</svg>
