<svg width="2726" height="728" viewBox="0 0 2726 728" fill="none" xmlns="http://www.w3.org/2000/svg">
<path d="M647.59 291.148H735.621V286.105C696.645 284.76 695.301 283.415 729.909 235.003L870.356 37.318L901.94 294.846H911.012L1085.73 48.7488C1110.59 13.7841 1116.31 11.767 1148.9 10.4222V5.37919H1060.87V10.4222C1099.84 11.767 1101.19 13.1118 1066.58 61.5243L923.779 262.235L892.196 5.37919H837.428V10.4222C871.7 11.767 876.74 14.1203 853.892 46.3954L710.757 247.778C685.893 282.743 680.182 284.76 647.59 286.105V291.148Z" fill="#252424"/>
<path d="M1241.58 295.182C1328.61 295.182 1396.14 232.986 1396.14 147.591C1396.14 62.1967 1328.61 0 1241.58 0C1154.56 0 1087.02 62.1967 1087.02 147.591C1087.02 232.986 1154.56 295.182 1241.58 295.182ZM1241.58 288.458C1161.28 288.458 1115.25 226.262 1115.25 147.591C1115.25 68.9207 1161.28 6.72398 1241.58 6.72398C1321.89 6.72398 1367.92 68.9207 1367.92 147.591C1367.92 226.262 1321.89 288.458 1241.58 288.458Z" fill="#252424"/>
<path d="M1626.74 62.5329C1644.55 14.7927 1647.57 12.4393 1676.47 11.0945V5.37919H1599.53V11.0945C1633.13 12.7755 1635.14 15.1289 1615.99 66.5673L1539.38 274.002C1537.37 279.381 1535.35 282.407 1531.32 282.407C1527.29 282.407 1525.61 279.717 1523.26 273.666L1435.22 38.6628C1425.82 13.7841 1434.89 12.1032 1463.78 11.0945V5.37919H1370.04V11.0945C1397.93 12.4393 1399.95 14.7927 1409.69 40.3438L1498.73 275.01C1503.77 288.458 1512.17 295.182 1524.26 295.182C1536.36 295.182 1543.08 288.122 1547.78 275.683L1626.74 62.5329Z" fill="#252424"/>
<path d="M1798 295.182C1885.02 295.182 1952.56 232.986 1952.56 147.591C1952.56 62.1967 1885.02 0 1798 0C1710.98 0 1643.44 62.1967 1643.44 147.591C1643.44 232.986 1710.98 295.182 1798 295.182ZM1798 288.458C1717.7 288.458 1671.66 226.262 1671.66 147.591C1671.66 68.9207 1717.7 6.72398 1798 6.72398C1878.3 6.72398 1924.33 68.9207 1924.33 147.591C1924.33 226.262 1878.3 288.458 1798 288.458Z" fill="#252424"/>
<path d="M103.487 374.319C136.751 404.577 185.134 423.068 238.894 423.068C296.013 423.068 335.661 400.206 335.661 371.63C335.661 342.716 302.733 318.846 240.574 318.846C190.51 318.846 140.447 333.639 99.4551 357.509C80.6393 334.311 69.8874 306.407 69.8874 276.485C69.8874 234.124 92.3992 210.927 123.983 210.927C154.223 210.927 184.462 226.392 207.646 268.417L214.03 265.055C191.182 223.702 158.591 203.866 123.647 203.866C83.3273 203.866 57.7915 233.788 57.7915 273.796C57.7915 307.416 70.2234 337.673 91.7272 362.216C40.3197 394.491 4.70396 441.223 4.70396 490.98C4.70396 543.427 40.6557 580.073 106.511 580.073C148.175 580.073 192.526 563.599 224.782 540.065L189.502 589.486L112.559 616.046C45.3596 639.244 0 659.079 0 690.682C0 712.871 21.8398 728 47.0396 728C118.271 728 163.967 665.467 203.278 609.994L269.47 516.867H241.246C207.646 548.47 156.239 573.349 107.183 573.349C46.0316 573.349 16.7999 538.384 16.7999 494.342C16.7999 446.602 52.4156 402.896 103.487 374.319ZM323.565 375.664C323.565 399.198 283.918 416.344 239.566 416.344C186.142 416.344 141.455 398.525 111.551 369.949C148.511 351.121 192.526 339.691 236.878 339.691C290.974 339.691 323.565 355.156 323.565 375.664ZM44.0156 711.526C25.5358 711.526 11.4239 701.44 11.4239 688.329C11.4239 662.777 51.4076 644.623 119.951 620.753L182.782 598.9L175.055 609.994C146.159 650.338 98.7831 711.526 44.0156 711.526Z" fill="#252424"/>
<path d="M336.102 609.994H435.221V604.279C401.958 602.262 397.926 601.926 397.926 574.021V464.42H449.669C488.645 464.42 508.133 483.584 510.821 522.246C512.165 540.401 510.821 559.565 511.829 574.021C513.845 604.951 533.332 613.692 551.476 613.692C570.292 613.692 585.412 602.934 592.468 577.047L586.084 575.366C579.028 597.555 568.612 604.279 558.532 604.279C546.772 604.279 538.708 597.891 537.364 572.34C536.692 557.211 536.356 538.048 534.676 519.557C531.652 487.618 516.533 467.446 480.245 463.076V462.403C523.253 455.679 553.156 431.809 553.156 394.491C553.156 350.449 511.493 324.226 457.397 324.226H336.102V329.941C369.366 331.958 373.398 332.294 373.398 360.199V574.021C373.398 601.926 369.366 602.262 336.102 604.279V609.994ZM397.926 330.949H447.989C497.381 330.949 524.932 354.483 524.932 394.491C524.932 434.499 496.709 457.024 448.997 457.36L397.926 457.696V330.949Z" fill="#252424"/>
<path d="M596.644 609.994H812.018L823.442 525.272H817.394C801.603 600.245 788.835 603.27 691.06 603.27H686.691C660.82 603.27 658.468 597.219 658.468 574.021V461.395H761.955V454.671H658.468V330.949H733.059C778.083 330.949 789.507 349.44 800.931 402.224H806.978L796.563 324.226H596.644V329.941C629.908 331.958 633.94 332.294 633.94 360.199V574.021C633.94 601.926 629.908 602.262 596.644 604.279V609.994Z" fill="#252424"/>
<path d="M838.918 466.774C838.918 549.142 901.078 614.029 985.413 614.029C1048.58 614.029 1083.52 579.4 1116.12 564.271V523.255C1116.12 495.351 1120.15 495.014 1153.41 492.997V487.282H1054.29V492.997C1087.56 495.014 1091.59 495.351 1091.59 523.255C1091.59 533.341 1090.92 541.074 1087.56 550.487C1077.14 579.736 1030.44 606.969 988.101 606.969C912.838 606.969 867.142 542.082 867.142 466.774C867.142 387.767 907.126 325.57 983.061 325.57C1046.23 325.57 1092.93 366.25 1101.67 412.982H1107.38L1105.03 329.605H1098.98C1097.64 342.044 1093.27 347.423 1086.88 347.423C1081.17 347.423 1076.8 345.07 1070.42 341.708C1053.62 332.967 1024.72 318.846 983.733 318.846C900.742 318.846 838.918 380.035 838.918 466.774Z" fill="#252424"/>
<path d="M1112.09 609.994H1189.04V604.279C1155.44 602.598 1153.08 600.245 1172.57 548.806L1188.03 507.79H1331.83L1358.04 576.711C1366.11 598.227 1362.41 603.607 1329.48 604.279V609.994H1423.22V604.279C1395.34 602.934 1393.66 600.581 1383.58 575.03L1337.88 457.024L1292.19 339.018C1287.48 326.915 1279.75 318.846 1266.99 318.846C1250.19 318.846 1245.15 332.967 1243.13 338.346L1161.82 552.841C1143.68 600.581 1140.99 602.934 1112.09 604.279V609.994ZM1190.71 500.394L1251.53 340.027C1253.55 334.648 1255.56 331.622 1259.59 331.622C1264.63 331.622 1265.98 336.329 1267.66 340.363L1328.81 500.394H1190.71Z" fill="#252424"/>
<path d="M1972.02 603.27V609.994C1972.02 670.174 1937.42 718.586 1882.31 718.586C1826.2 718.586 1803.69 670.174 1786.89 616.046L1756.65 519.893C1749.26 496.359 1740.52 477.196 1730.78 462.403C1775.13 454.671 1822.84 432.145 1822.84 389.784C1822.84 371.63 1811.75 354.82 1792.94 342.044C1806.71 333.975 1829 329.941 1848.92 329.941V324.226C1822.84 324.226 1802.01 329.941 1787.56 338.682C1766.73 326.243 1738.51 318.846 1706.59 318.846C1568.83 318.846 1425.02 432.145 1425.02 537.375C1425.02 585.116 1453.24 613.692 1499.61 613.692C1541.28 613.692 1590.33 595.202 1653.5 508.462L1685.08 465.093C1688.44 465.429 1692.14 465.429 1695.83 465.429C1703.56 465.429 1711.96 464.757 1720.36 463.748C1726.75 474.842 1732.12 488.29 1736.49 504.764L1767.74 628.821C1783.87 692.699 1818.14 728 1875.59 728C1940.1 728 1980.09 678.243 1980.09 609.994V603.27H1972.02ZM1646.78 505.773C1582.27 593.857 1535.56 606.969 1500.96 606.969C1458.28 606.969 1434.76 582.09 1434.76 539.729C1434.76 442.231 1568.83 339.691 1700.54 339.691C1730.11 339.691 1753.29 343.725 1770.43 350.113C1752.28 364.233 1736.15 383.396 1717.67 408.948L1700.87 431.809C1687.77 423.74 1673.32 419.706 1657.19 419.706C1641.07 419.706 1631.66 427.438 1631.66 435.171C1631.66 449.628 1650.14 460.722 1677.02 464.084L1646.78 505.773ZM1810.07 394.827C1810.07 432.145 1765.72 450.3 1726.41 456.352C1720.03 447.947 1713.64 441.223 1706.25 435.843L1722.71 413.318C1742.54 385.75 1759 366.587 1776.81 352.802C1799.32 362.888 1810.07 378.354 1810.07 394.827ZM1696.84 437.524L1682.06 457.696C1657.53 454.671 1645.1 445.593 1645.1 437.524C1645.1 431.473 1651.15 427.438 1662.57 427.438C1675 427.438 1686.43 430.8 1696.84 437.524ZM1697.85 458.369C1695.16 458.369 1692.47 458.369 1690.12 458.033L1702.22 441.559C1707.26 445.929 1711.96 450.972 1716.33 457.36C1709.95 458.033 1703.56 458.369 1697.85 458.369Z" fill="#252424"/>
<path d="M1848.92 609.994H1948.04V604.279C1914.77 602.262 1910.74 601.926 1910.74 574.021V360.199C1910.74 332.294 1914.77 331.958 1948.04 329.941V324.226H1848.92V329.941C1882.18 331.958 1886.21 332.294 1886.21 360.199V574.021C1886.21 601.926 1882.18 602.262 1848.92 604.279V609.994Z" fill="#252424"/>
<path d="M2103.31 614.029C2190.33 614.029 2257.87 551.832 2257.87 466.438C2257.87 381.043 2190.33 318.846 2103.31 318.846C2016.29 318.846 1948.75 381.043 1948.75 466.438C1948.75 551.832 2016.29 614.029 2103.31 614.029ZM2103.31 607.305C2023.01 607.305 1976.98 545.108 1976.98 466.438C1976.98 387.767 2023.01 325.57 2103.31 325.57C2183.61 325.57 2229.65 387.767 2229.65 466.438C2229.65 545.108 2183.61 607.305 2103.31 607.305Z" fill="#252424"/>
<path d="M2246.94 329.941C2280.21 331.958 2284.24 332.294 2284.24 360.199V374.319L2284.58 495.351C2284.91 575.366 2331.95 614.029 2397.47 614.029C2469.37 614.029 2508.01 576.038 2508.01 494.006V360.199C2508.01 332.294 2512.05 331.958 2545.31 329.941V324.226H2462.99V329.941C2496.25 331.958 2500.29 332.294 2500.29 360.199V494.006C2500.29 573.012 2465.01 599.572 2401.84 599.572C2343.71 599.572 2308.77 566.289 2308.77 487.282V360.199C2308.77 332.294 2312.8 331.958 2346.06 329.941V324.226H2246.94V329.941Z" fill="#252424"/>
<path d="M2545.91 517.876H2539.86L2541.87 606.969H2547.92C2548.26 594.529 2551.62 591.84 2555.65 591.84C2569.09 591.84 2585.55 614.029 2631.92 614.029C2680.3 614.029 2726 584.779 2726 537.712C2726 492.661 2690.05 470.808 2652.08 452.99L2623.86 439.878C2587.57 423.068 2567.41 404.241 2567.41 374.991C2567.41 346.078 2591.6 325.57 2628.22 325.57C2667.87 325.57 2703.82 352.466 2711.22 399.534L2716.93 399.198L2715.25 325.57H2709.87C2708.19 338.682 2705.17 340.027 2700.46 340.027C2697.44 340.027 2692.4 338.01 2685.01 334.311C2672.24 327.924 2654.77 318.846 2628.9 318.846C2583.2 318.846 2547.59 346.415 2547.59 385.414C2547.59 421.723 2571.44 442.231 2612.43 462.403L2638.98 475.515C2672.24 491.989 2704.16 510.816 2704.16 548.806C2704.16 586.124 2669.89 607.305 2631.25 607.305C2582.53 607.305 2548.26 568.642 2545.91 517.876Z" fill="#252424"/>
</svg>
