<svg width="89" height="20" viewBox="0 0 89 20" fill="none" xmlns="http://www.w3.org/2000/svg">
<path d="M29.7754 0.936C29.0154 0.936 28.6314 1.464 28.3834 1.88V0.912L27.1594 1.104V1.232C27.7514 1.248 27.8634 1.272 27.8634 1.672V4.84L27.1594 4.848V5H29.0874V4.848L28.3834 4.84V2.144C28.6794 1.6 28.9674 1.36 29.4474 1.36C29.6874 1.36 29.8954 1.424 30.0154 1.472L30.0474 0.968C29.9914 0.952 29.8714 0.936 29.7754 0.936ZM32.7532 4.848C31.8092 4.848 31.1612 3.992 31.1612 2.776C31.1612 2.68 31.1692 2.576 31.1772 2.48H34.2252C34.1772 1.408 33.4172 0.872 32.5212 0.872C31.3932 0.872 30.5532 1.736 30.5532 2.984C30.5532 4.088 31.3292 5.096 32.5612 5.096C33.2252 5.096 33.8092 4.736 34.1692 4.112L34.0332 4.032C33.6812 4.576 33.2892 4.848 32.7532 4.848ZM32.5052 1.032C33.2012 1.032 33.6092 1.472 33.6092 1.992C33.6092 2.2 33.5132 2.32 33.2812 2.32H31.2012C31.3132 1.608 31.7212 1.032 32.5052 1.032ZM35.4244 1.344V4.08C35.4244 4.792 35.9444 5.096 36.4324 5.096C36.8324 5.096 37.1844 4.936 37.4004 4.56L37.2964 4.496C37.1364 4.728 36.9684 4.864 36.6484 4.864C36.2564 4.864 35.9364 4.584 35.9364 4.008V1.344H37.5204L37.6724 1H35.9364V0.28L35.0004 1.344H35.4244ZM41.8145 4.296V0.912L40.5905 1.104V1.232C41.1825 1.248 41.2945 1.272 41.2945 1.672V3.864C40.8465 4.584 40.4865 4.824 40.0545 4.824C39.7185 4.824 39.5265 4.664 39.4225 4.488C39.3345 4.32 39.2785 4.056 39.2785 3.44V0.912L38.0545 1.104V1.232C38.6465 1.248 38.7585 1.272 38.7585 1.672V3.608C38.7585 4.312 38.8465 4.536 39.0065 4.752C39.1745 4.984 39.4705 5.096 39.8465 5.096C40.5025 5.096 40.9025 4.736 41.2945 4.128V5.048L42.5825 4.864V4.736C41.9105 4.72 41.8145 4.696 41.8145 4.296ZM45.7438 0.936C44.9838 0.936 44.5998 1.464 44.3518 1.88V0.912L43.1278 1.104V1.232C43.7198 1.248 43.8318 1.272 43.8318 1.672V4.84L43.1278 4.848V5H45.0558V4.848L44.3518 4.84V2.144C44.6478 1.6 44.9358 1.36 45.4158 1.36C45.6558 1.36 45.8638 1.424 45.9838 1.472L46.0158 0.968C45.9598 0.952 45.8398 0.936 45.7438 0.936ZM50.4215 4.84V2.36C50.4215 1.656 50.3335 1.432 50.1735 1.216C49.9975 0.992 49.7015 0.872 49.3255 0.872C48.6615 0.872 48.2615 1.232 47.8615 1.84V0.912L46.6375 1.104V1.232C47.2295 1.248 47.3415 1.272 47.3415 1.672V4.84L46.6375 4.848V5H48.5655V4.848L47.8615 4.84V2.104C48.3175 1.384 48.6775 1.144 49.1175 1.144C49.4535 1.144 49.6535 1.304 49.7495 1.48C49.8455 1.648 49.9015 1.912 49.9015 2.528V4.84L49.1975 4.848V5H51.1255V4.848L50.4215 4.84ZM55.0822 1.344V4.08C55.0822 4.792 55.6022 5.096 56.0902 5.096C56.4902 5.096 56.8422 4.936 57.0582 4.56L56.9542 4.496C56.7942 4.728 56.6262 4.864 56.3062 4.864C55.9142 4.864 55.5942 4.584 55.5942 4.008V1.344H57.1782L57.3302 1H55.5942V0.28L54.6582 1.344H55.0822ZM59.7624 5.096C60.8744 5.096 61.7864 4.176 61.7864 2.976C61.7864 1.784 60.8744 0.872 59.7624 0.872C58.6424 0.872 57.7304 1.784 57.7304 2.976C57.7304 4.184 58.6424 5.096 59.7624 5.096ZM59.7624 4.936C58.8584 4.936 58.3384 4.112 58.3384 2.976C58.3384 1.856 58.8664 1.032 59.7624 1.032C60.6584 1.032 61.1784 1.856 61.1784 2.976C61.1784 4.112 60.6584 4.936 59.7624 4.936ZM0.878467 19H3.57347V18.813C2.48447 18.747 2.35247 18.736 2.35247 17.823V10.805L6.60947 19H6.77447L10.9545 10.244V17.823C10.9545 18.736 10.8225 18.747 9.73347 18.813V19H12.9785V18.813C11.8895 18.747 11.7575 18.736 11.7575 17.823V10.827C11.7575 9.914 11.8895 9.903 12.9785 9.837V9.65H10.9545L6.98347 17.966L2.69347 9.65H0.878467V9.837C1.96747 9.903 2.09947 9.914 2.09947 10.827V17.823C2.09947 18.736 1.96747 18.747 0.878467 18.813V19ZM13.7025 9.837C14.2085 9.87 14.5825 9.947 14.9895 10.519L18.1355 14.952V17.823C18.1355 18.736 18.0035 18.747 16.9145 18.813V19H20.1595V18.813C19.0705 18.747 18.9385 18.736 18.9385 17.823V14.809L21.4245 11.201C22.2935 9.947 22.3925 9.87 23.1845 9.837V9.65H20.7865V9.837C21.8865 9.87 21.9635 9.969 20.9845 11.388L18.8285 14.534L16.1995 10.816C15.9685 10.486 15.8255 10.288 15.8255 10.134C15.8255 9.936 16.0785 9.859 16.7825 9.837V9.65H13.7025V9.837ZM28.0932 19H31.3382V18.813C30.2492 18.747 30.1172 18.736 30.1172 17.823V14.237H31.8112C33.0872 14.237 33.7252 14.864 33.8132 16.129C33.8572 16.723 33.8132 17.35 33.8462 17.823C33.9122 18.835 34.5502 19.121 35.1442 19.121C35.7602 19.121 36.2552 18.769 36.4862 17.922L36.2772 17.867C36.0462 18.593 35.7052 18.813 35.3752 18.813C34.9902 18.813 34.7262 18.604 34.6822 17.768C34.6602 17.273 34.6492 16.646 34.5942 16.041C34.4952 14.996 34.0002 14.336 32.8122 14.193V14.171C34.2202 13.951 35.1992 13.17 35.1992 11.949C35.1992 10.508 33.8352 9.65 32.0642 9.65H28.0932V9.837C29.1822 9.903 29.3142 9.914 29.3142 10.827V17.823C29.3142 18.736 29.1822 18.747 28.0932 18.813V19ZM30.1172 9.87H31.7562C33.3732 9.87 34.2752 10.64 34.2752 11.949C34.2752 13.258 33.3512 13.995 31.7892 14.006L30.1172 14.017V9.87ZM37.2829 19H44.3339L44.7079 16.228H44.5099C43.9929 18.681 43.5749 18.78 40.3739 18.78H40.2309C39.3839 18.78 39.3069 18.582 39.3069 17.823V14.138H42.6949V13.918H39.3069V9.87H41.7489C43.2229 9.87 43.5969 10.475 43.9709 12.202H44.1689L43.8279 9.65H37.2829V9.837C38.3719 9.903 38.5039 9.914 38.5039 10.827V17.823C38.5039 18.736 38.3719 18.747 37.2829 18.813V19ZM46.2854 15.986H46.0874L46.1534 18.901H46.3514C46.3624 18.494 46.4724 18.406 46.6044 18.406C47.0444 18.406 47.5834 19.132 49.1014 19.132C50.6854 19.132 52.1814 18.175 52.1814 16.635C52.1814 15.161 51.0044 14.446 49.7614 13.863L48.8374 13.434C47.6494 12.884 46.9894 12.268 46.9894 11.311C46.9894 10.365 47.7814 9.694 48.9804 9.694C50.2784 9.694 51.4554 10.574 51.6974 12.114L51.8844 12.103L51.8294 9.694H51.6534C51.5984 10.123 51.4994 10.167 51.3454 10.167C51.2464 10.167 51.0814 10.101 50.8394 9.98C50.4214 9.771 49.8494 9.474 49.0024 9.474C47.5064 9.474 46.3404 10.376 46.3404 11.652C46.3404 12.84 47.1214 13.511 48.4634 14.171L49.3324 14.6C50.4214 15.139 51.4664 15.755 51.4664 16.998C51.4664 18.219 50.3444 18.912 49.0794 18.912C47.4844 18.912 46.3624 17.647 46.2854 15.986ZM53.4878 9.837C54.5768 9.903 54.7088 9.914 54.7088 10.827V11.289L54.7198 15.249C54.7308 17.867 56.2708 19.132 58.4158 19.132C60.7698 19.132 62.0348 17.889 62.0348 15.205V10.827C62.0348 9.914 62.1668 9.903 63.2558 9.837V9.65H60.5608V9.837C61.6498 9.903 61.7818 9.914 61.7818 10.827V15.205C61.7818 17.79 60.6268 18.659 58.5588 18.659C56.6558 18.659 55.5118 17.57 55.5118 14.985V10.827C55.5118 9.914 55.6438 9.903 56.7328 9.837V9.65H53.4878V9.837ZM64.5075 19H72.2295L72.6035 16.228H72.4055C71.8885 18.681 71.4705 18.78 68.2695 18.78H67.4555C66.6085 18.78 66.5315 18.582 66.5315 17.823V10.827C66.5315 9.914 66.6635 9.903 67.7525 9.837V9.65H64.5075V9.837C65.5965 9.903 65.7285 9.914 65.7285 10.827V17.823C65.7285 18.736 65.5965 18.747 64.5075 18.813V19ZM72.0787 12.202H72.2767C72.6507 10.475 73.0247 9.87 74.4987 9.87H76.0387V17.823C76.0387 18.736 75.9067 18.747 74.8177 18.813V19H78.0627V18.813C76.9737 18.747 76.8417 18.736 76.8417 17.823V9.87H78.3817C79.8557 9.87 80.2297 10.475 80.6037 12.202H80.8017L80.4607 9.65H72.4197L72.0787 12.202ZM82.2172 15.986H82.0192L82.0852 18.901H82.2832C82.2942 18.494 82.4042 18.406 82.5362 18.406C82.9762 18.406 83.5152 19.132 85.0332 19.132C86.6172 19.132 88.1132 18.175 88.1132 16.635C88.1132 15.161 86.9362 14.446 85.6932 13.863L84.7692 13.434C83.5812 12.884 82.9212 12.268 82.9212 11.311C82.9212 10.365 83.7132 9.694 84.9122 9.694C86.2102 9.694 87.3872 10.574 87.6292 12.114L87.8162 12.103L87.7612 9.694H87.5852C87.5302 10.123 87.4312 10.167 87.2772 10.167C87.1782 10.167 87.0132 10.101 86.7712 9.98C86.3532 9.771 85.7812 9.474 84.9342 9.474C83.4382 9.474 82.2722 10.376 82.2722 11.652C82.2722 12.84 83.0532 13.511 84.3952 14.171L85.2642 14.6C86.3532 15.139 87.3982 15.755 87.3982 16.998C87.3982 18.219 86.2762 18.912 85.0112 18.912C83.4162 18.912 82.2942 17.647 82.2172 15.986Z" fill="#252424"/>
</svg>
