<svg width="1742" height="728" viewBox="0 0 1742 728" fill="none" xmlns="http://www.w3.org/2000/svg">
<path d="M531.706 199.123H525.652L527.67 288.258H533.724C534.06 275.813 537.423 273.122 541.459 273.122C554.911 273.122 571.39 295.321 617.8 295.321C666.228 295.321 711.966 266.058 711.966 218.968C711.966 173.896 675.981 152.033 637.979 134.206L609.729 121.088C573.408 104.271 553.23 85.4346 553.23 56.1716C553.23 27.2449 577.444 6.72715 614.101 6.72715C653.785 6.72715 689.77 33.6357 697.168 80.7256L702.885 80.3893L701.204 6.72715H695.823C694.141 19.8451 691.115 21.1905 686.406 21.1905C683.38 21.1905 678.335 19.1723 670.936 15.4724C658.157 9.08163 640.669 0 614.773 0C569.036 0 533.388 27.5813 533.388 66.5986C533.388 102.925 557.265 123.443 598.294 143.624L624.863 156.742C658.157 173.224 690.106 192.06 690.106 230.068C690.106 267.404 655.803 288.594 617.128 288.594C568.363 288.594 534.06 249.913 531.706 199.123Z" fill="#252424"/>
<path d="M739.32 232.086C739.32 272.449 779.004 294.985 833.149 294.985C920.588 294.985 961.618 236.459 980.787 209.55L1096.81 46.0809C1116.99 17.8269 1122.04 12.1088 1158.02 10.4271V5.38172H1069.91V10.4271C1113.96 11.7725 1105.89 18.836 1075.62 61.5533L972.043 207.532C956.237 230.068 918.907 280.858 842.565 280.858C798.846 280.858 766.897 264.04 766.897 230.068C766.897 208.878 776.986 194.414 783.712 184.996L885.612 41.3719C902.428 17.4906 907.809 11.7725 943.457 10.4271V5.38172H837.185V10.4271C876.869 12.1088 873.169 19.1724 861.735 35.3175L763.87 172.887C751.427 190.042 739.32 209.887 739.32 232.086Z" fill="#252424"/>
<path d="M982.56 291.285H1088.83V286.24C1053.18 284.894 1051.17 280.522 1064.62 261.013L1220.66 41.3719C1237.82 17.4906 1242.52 11.7725 1278.51 10.4271V5.38172H1172.24V10.4271C1207.88 11.7725 1209.9 16.1451 1196.45 35.6538L1040.4 255.295C1023.25 279.176 1018.54 284.894 982.56 286.24V291.285Z" fill="#252424"/>
<path d="M0 609.939H106.273V604.893C70.6241 603.548 68.6063 599.175 82.0585 579.667L238.104 360.026C255.256 336.144 259.964 330.426 295.949 329.081V324.036H189.676V329.081C225.325 330.426 227.342 334.799 213.89 354.308L57.8445 573.949C40.693 597.83 35.9847 603.548 0 604.893V609.939Z" fill="#252424"/>
<path d="M139.664 609.939H227.776V604.893C188.765 603.548 187.419 602.203 222.059 553.767L362.634 355.989L394.247 613.639H403.327L578.206 367.426C603.093 332.444 608.81 330.426 641.432 329.081V324.036H553.32V329.081C592.331 330.426 593.676 331.772 559.037 380.207L416.107 581.012L384.494 324.036H329.676V329.081C363.98 330.426 369.024 332.781 346.155 365.071L202.889 566.549C178.003 601.53 172.286 603.548 139.664 604.893V609.939Z" fill="#252424"/>
<path d="M471.211 516.768H463.476C466.503 577.648 499.797 613.639 559.323 613.639C627.93 613.639 689.81 565.203 689.81 493.896C689.81 460.26 678.039 428.642 678.039 399.043C678.039 342.871 709.652 330.763 764.806 330.763H870.406V324.036H764.806C700.235 324.036 653.489 344.217 653.489 414.852C653.489 445.124 663.578 474.387 663.578 504.323C663.578 563.185 617.168 606.912 559.323 606.912C503.496 606.912 474.238 572.267 471.211 516.768Z" fill="#252424"/>
<path d="M744.141 609.939H843.351V604.221C810.057 602.203 806.021 601.866 806.021 573.949V464.296H862.857C918.684 464.296 961.395 438.733 961.395 394.334C961.395 350.271 919.356 324.036 865.547 324.036H764.806L744.141 329.754C777.436 331.772 781.471 332.108 781.471 360.026V573.949C781.471 601.866 777.436 602.203 744.141 604.221V609.939ZM806.021 330.763H856.804C906.24 330.763 933.145 354.308 933.145 394.334C933.145 434.361 905.568 456.896 857.812 457.233L806.021 457.569V330.763Z" fill="#252424"/>
<path d="M958.067 609.939H1057.28V604.221C1023.98 602.203 1019.95 601.866 1019.95 573.949V360.026C1019.95 332.108 1023.98 331.772 1057.28 329.754V324.036H958.067V329.754C991.362 331.772 995.397 332.108 995.397 360.026V573.949C995.397 601.866 991.362 602.203 958.067 604.221V609.939Z" fill="#252424"/>
<path d="M1599.96 603.212V609.939C1599.96 670.147 1565.32 718.582 1510.17 718.582C1454 718.582 1431.47 670.147 1414.66 615.993L1384.39 519.795C1376.99 496.25 1368.25 477.078 1358.49 462.278C1402.88 454.542 1450.64 432.006 1450.64 389.625C1450.64 371.462 1439.54 354.644 1420.71 341.862C1434.5 333.79 1449.97 328.408 1468.46 324.708L1466.45 319.327C1446.27 323.699 1429.79 329.754 1415.33 338.499C1394.48 326.054 1366.23 318.654 1334.28 318.654C1196.39 318.654 1052.45 432.006 1052.45 537.286C1052.45 585.048 1080.7 613.639 1127.11 613.639C1168.82 613.639 1217.92 595.139 1281.14 508.359L1312.75 464.969C1316.12 465.305 1319.82 465.305 1323.52 465.305C1331.25 465.305 1339.66 464.633 1348.07 463.624C1354.46 474.723 1359.84 488.178 1364.21 504.659L1395.49 628.775C1411.63 692.683 1445.93 728 1503.44 728C1568.01 728 1608.03 678.219 1608.03 609.939V603.212H1599.96ZM1274.42 505.668C1209.85 593.794 1163.1 606.912 1128.46 606.912C1085.75 606.912 1062.21 582.021 1062.21 539.64C1062.21 442.097 1196.39 339.508 1328.22 339.508C1357.82 339.508 1381.02 343.544 1398.18 349.935C1380.02 364.062 1363.87 383.234 1345.38 408.797L1328.56 431.67C1315.45 423.597 1300.98 419.561 1284.84 419.561C1268.7 419.561 1259.28 427.297 1259.28 435.033C1259.28 449.497 1277.78 460.596 1304.68 463.96L1274.42 505.668ZM1437.86 394.67C1437.86 432.006 1393.47 450.169 1354.12 456.224C1347.73 447.815 1341.34 441.088 1333.94 435.706L1350.42 413.17C1370.26 385.589 1386.74 366.416 1404.57 352.626C1427.1 362.717 1437.86 378.189 1437.86 394.67ZM1324.53 437.388L1309.73 457.569C1285.18 454.542 1272.73 445.46 1272.73 437.388C1272.73 431.333 1278.79 427.297 1290.22 427.297C1302.67 427.297 1314.1 430.661 1324.53 437.388ZM1325.53 458.242C1322.84 458.242 1320.15 458.242 1317.8 457.906L1329.91 441.424C1334.95 445.797 1339.66 450.842 1344.03 457.233C1337.64 457.905 1331.25 458.242 1325.53 458.242Z" fill="#252424"/>
<path d="M1430.58 609.939H1507.6V604.221C1473.96 602.539 1471.61 600.184 1491.12 548.722L1506.59 507.686H1650.53L1676.76 576.639C1684.83 598.166 1681.13 603.548 1648.17 604.221V609.939H1742V604.221C1714.09 602.875 1712.41 600.521 1702.32 574.958L1610.84 338.835C1606.13 326.726 1598.4 318.654 1585.62 318.654C1568.8 318.654 1563.76 332.781 1561.74 338.163L1480.35 552.758C1462.19 600.521 1459.5 602.875 1430.58 604.221V609.939ZM1509.28 500.286L1570.15 339.844C1572.17 334.463 1574.18 331.435 1578.22 331.435C1583.26 331.435 1584.61 336.144 1586.29 340.181L1647.5 500.286H1509.28Z" fill="#252424"/>
</svg>
