<svg width="1861" height="618" viewBox="0 0 1861 618" fill="none" xmlns="http://www.w3.org/2000/svg">
<path d="M329.124 11.1565C344.654 12.1707 356.133 14.5372 368.624 32.1171L465.18 168.361V256.598C465.18 284.659 461.128 284.997 427.705 287.025V292.772H527.299V287.025C493.876 284.997 489.825 284.659 489.825 256.598V163.966L566.124 53.0777C592.795 14.5372 595.833 12.1707 620.141 11.1565V5.4092H546.543V11.1565C580.304 12.1707 582.667 15.2134 552.62 58.825L486.449 155.514L405.761 41.2451C398.671 31.1028 394.282 25.0175 394.282 20.2845C394.282 14.1991 402.047 11.8326 423.654 11.1565V5.4092H329.124V11.1565Z" fill="#252424"/>
<path d="M737.063 296.829C824.504 296.829 892.362 234.286 892.362 148.415C892.362 62.5438 824.504 0 737.063 0C649.623 0 581.764 62.5438 581.764 148.415C581.764 234.286 649.623 296.829 737.063 296.829ZM737.063 290.068C656.375 290.068 610.123 227.524 610.123 148.415C610.123 69.3053 656.375 6.7615 737.063 6.7615C817.751 6.7615 864.004 69.3053 864.004 148.415C864.004 227.524 817.751 290.068 737.063 290.068Z" fill="#252424"/>
<path d="M902.261 292.772H1139.26L1150.74 207.578H1144.66C1128.8 282.968 1115.97 286.011 1017.72 286.011H992.74C966.744 286.011 964.381 279.926 964.381 256.598V41.5832C964.381 13.523 968.432 13.1849 1001.86 11.1565V5.4092H902.261V11.1565C935.684 13.1849 939.736 13.523 939.736 41.5832V256.598C939.736 284.659 935.684 284.997 902.261 287.025V292.772Z" fill="#252424"/>
<path d="M1289.96 296.491C1408.79 296.491 1534.38 201.83 1534.38 94.9989C1534.38 40.2309 1486.78 0 1411.16 0C1285.9 0 1174.16 103.451 1174.16 198.112C1174.16 259.303 1219.73 296.491 1289.96 296.491ZM1516.15 107.846C1516.15 202.507 1403.05 289.73 1291.64 289.73C1224.46 289.73 1189.69 253.894 1189.69 202.845C1189.69 109.874 1296.71 23.6652 1406.09 23.6652C1490.16 23.6652 1516.15 65.5864 1516.15 107.846Z" fill="#252424"/>
<path d="M113.436 377.291C146.859 407.718 195.137 425.974 248.816 425.974C306.209 425.974 346.047 402.985 346.047 374.248C346.047 345.174 312.962 321.171 250.504 321.171C199.188 321.171 149.897 336.046 109.047 360.049C89.8035 336.722 79 308.662 79 278.573C79 235.976 101.62 212.649 133.355 212.649C163.739 212.649 194.124 228.2 217.419 270.46L223.833 267.079C200.876 225.496 168.128 205.549 133.017 205.549C92.5043 205.549 66.8462 235.638 66.8462 275.869C66.8462 310.014 79.6752 340.441 100.944 364.782C40.8504 402.647 0 460.119 0 517.93C0 570.67 36.1239 617.662 119.175 617.662C192.774 617.662 268.398 573.036 268.398 514.549C268.398 475.333 233.286 456.4 198.175 456.4C158.675 456.4 107.021 478.375 75.9616 538.214L82.3761 541.257C113.774 480.404 163.064 463.5 197.838 463.5C228.222 463.5 259.957 479.051 259.957 514.887C259.957 569.993 187.372 610.9 119.85 610.9C41.5257 610.9 12.1539 565.598 12.1539 521.311C12.1539 467.219 52.6667 412.113 113.436 377.291ZM333.893 378.305C333.893 401.97 294.056 419.212 249.491 419.212C196.15 419.212 151.585 401.294 121.201 373.234C157.662 353.964 200.876 342.131 246.791 342.131C301.145 342.131 333.893 357.683 333.893 378.305Z" fill="#252424"/>
<path d="M331.828 613.943H431.422V608.196C397.999 606.167 393.948 605.829 393.948 577.769V470.938H589.76V577.769C589.76 605.829 585.709 606.167 552.286 608.196V613.943H651.88V608.196C618.457 606.167 614.405 605.829 614.405 577.769V362.754C614.405 334.694 618.457 334.356 651.88 332.327V326.58H552.286V332.327C585.709 334.356 589.76 334.694 589.76 362.754V464.176H393.948V362.754C393.948 334.694 397.999 334.356 431.422 332.327V326.58H331.828V332.327C365.251 334.356 369.303 334.694 369.303 362.754V577.769C369.303 605.829 365.251 606.167 331.828 608.196V613.943Z" fill="#252424"/>
<path d="M640.554 613.943H717.866V608.196C684.105 606.505 681.742 604.139 701.323 552.414L716.853 511.168H861.349L887.682 580.474C895.785 602.11 892.071 607.52 858.986 608.196V613.943H953.178V608.196C925.157 606.844 923.469 604.477 913.34 578.783L821.511 341.455C816.785 329.284 809.02 321.171 796.191 321.171C779.31 321.171 774.246 335.37 772.221 340.779L690.52 556.47C672.289 604.477 669.588 606.844 640.554 608.196V613.943ZM719.554 503.731L780.661 342.469C782.686 337.06 784.712 334.017 788.763 334.017C793.827 334.017 795.178 338.751 796.866 342.807L858.31 503.731H719.554Z" fill="#252424"/>
<path d="M1159.08 617.662C1040.25 617.662 914.657 523.001 914.657 416.17C914.657 361.402 962.259 321.171 1037.88 321.171C1163.14 321.171 1274.88 424.621 1274.88 519.282C1274.88 580.474 1229.31 617.662 1159.08 617.662ZM932.888 429.016C932.888 523.677 1045.99 610.9 1157.4 610.9C1224.58 610.9 1259.35 575.065 1259.35 524.015C1259.35 431.045 1152.33 344.836 1042.95 344.836C958.883 344.836 932.888 386.757 932.888 429.016Z" fill="#252424"/>
<path d="M1270.21 405.013H1276.29C1287.77 351.935 1299.25 333.341 1344.49 333.341H1391.75V577.769C1391.75 605.829 1387.7 606.167 1354.28 608.196V613.943H1453.87V608.196C1420.45 606.167 1416.4 605.829 1416.4 577.769V333.341H1463.66C1508.9 333.341 1520.38 351.935 1531.86 405.013H1537.94L1527.47 326.58H1280.68L1270.21 405.013Z" fill="#252424"/>
<path d="M1554.52 613.943H1654.11V608.196C1620.69 606.167 1616.64 605.829 1616.64 577.769V362.754C1616.64 334.694 1620.69 334.356 1654.11 332.327V326.58H1554.52V332.327C1587.94 334.356 1591.99 334.694 1591.99 362.754V470.261V577.769C1591.99 605.829 1587.94 606.167 1554.52 608.196V613.943Z" fill="#252424"/>
<path d="M1680.04 521.311H1673.97L1675.99 610.9H1682.07C1682.41 598.392 1685.78 595.687 1689.83 595.687C1703.34 595.687 1719.88 618 1766.47 618C1815.09 618 1861 588.587 1861 541.257C1861 495.955 1824.88 473.98 1786.73 456.062L1758.37 442.877C1721.91 425.974 1701.65 407.042 1701.65 377.629C1701.65 348.555 1725.96 327.932 1762.76 327.932C1802.59 327.932 1838.72 354.978 1846.15 402.309L1851.88 401.97L1850.2 327.932H1844.79C1843.11 341.117 1840.07 342.469 1835.34 342.469C1832.3 342.469 1827.24 340.441 1819.81 336.722C1806.98 330.299 1789.43 321.171 1763.43 321.171C1717.52 321.171 1681.73 348.893 1681.73 388.109C1681.73 424.621 1705.7 445.244 1746.89 465.528L1773.56 478.713C1806.98 495.279 1839.06 514.211 1839.06 552.414C1839.06 589.94 1804.62 611.238 1765.79 611.238C1716.84 611.238 1682.41 572.36 1680.04 521.311Z" fill="#252424"/>
</svg>
